<?xml version="1.0" encoding="UTF-8"?>
<svg width="375px" height="480px" viewBox="0 0 375 480" version="1.1" xmlns="http://www.w3.org/2000/svg" xmlns:xlink="http://www.w3.org/1999/xlink">
    <!-- Generator: Sketch 56.3 (81716) - https://sketch.com -->
    <title>Group 12</title>
    <desc>Created with Sketch.</desc>
    <g id="Page-1" stroke="none" stroke-width="1" fill="none" fill-rule="evenodd">
        <g id="Log-In-Copy-2" transform="translate(-723.000000, -287.000000)">
            <g id="Group-7" transform="translate(250.000000, 187.000000)">
                <g id="Group-9">
                    <g id="Group-8">
                        <g id="Group-11" transform="translate(380.000000, 0.000000)">
                            <g id="Group-12" transform="translate(93.000000, 87.000000)">
                                <g id="59893" transform="translate(0.000000, 175.000000)">
                                    <polyline id="Fill-4" fill="#3B455A" points="50.314072 306.2424 48.6950693 311.19216 55.3535734 317.39088 60.5491413 314.78544 57.841662 309.78384 57.5479778 309.51024 57.2707479 309.92208 50.314072 306.2424"></polyline>
                                    <path d="M86.2627147,205.89696 C82.5485319,206.57376 78.760554,207.54096 75.4497507,209.36064 C73.8975623,210.2136 72.5607756,211.25856 71.2219945,212.3136 L70.9298061,255.26448 L49.9266482,306.03696 L50.314072,306.2424 L51.1831579,303.58464 L57.5479778,309.51024 L96.079446,252.30624 L98.1147922,245.32272 L91.1501385,205.0944 C89.5131856,205.3272 87.8822161,205.59264 86.2627147,205.89696" id="Fill-5" fill="#587BC9"></path>
                                    <polyline id="Fill-6" fill="#587BC9" points="50.314072 306.2424 57.2707479 309.92208 57.5479778 309.51024 51.1831579 303.58464 50.314072 306.2424"></polyline>
                                    <path d="M101.581662,233.42688 L98.1147922,245.32272 L98.9070914,249.90096 L103.74615,310.45776 L103.790526,310.45776 L103.790526,309.58032 L111.540997,309.58032 L121.37169,244.8288 L120.895512,205.20048 C119.098006,205.02048 110.952632,204.22992 105.271911,204.11424 L101.581662,233.42688" id="Fill-7" fill="#587BC9"></path>
                                    <path d="M105.271911,204.11424 C104.516011,204.09888 103.801496,204.09456 103.153795,204.10656 C99.1444321,204.17808 95.1270914,204.52848 91.1501385,205.0944 L98.1147922,245.32272 L101.581662,233.42688 L105.271911,204.11424" id="Fill-8" fill="#587BC9"></path>
                                    <polyline id="Fill-9" fill="#3B455A" points="103.790526 310.45776 103.790526 313.56816 112.075512 317.556 116.218006 313.56816 112.075512 309.58032 111.540997 309.58032 111.407867 310.45776 103.790526 310.45776"></polyline>
                                    <polyline id="Fill-10" fill="#587BC9" points="103.790526 310.45776 111.407867 310.45776 111.540997 309.58032 103.790526 309.58032 103.790526 310.45776"></polyline>
                                    <path d="M97.6291413,127.6056 C97.9243213,126.56256 98.2284765,125.55072 99.158892,125.02656 C100.004044,124.5504 101.076565,124.68816 102.001994,124.37904 C103.744155,123.79632 104.494571,121.8696 105.028089,120.16992 C105.492299,118.69248 105.95651,117.21456 106.42072,115.73712 C106.62964,115.07184 106.837562,114.38544 106.973186,113.69664 C104.324543,112.74336 101.847424,110.9976 99.081108,110.32992 C95.9782271,109.5816 90.312964,108.47616 87.693241,110.97648 C87.6359003,111.03072 87.5835457,111.09216 87.5341828,111.15792 C87.3407202,112.04064 87.1472576,112.92432 86.953795,113.80752 C86.9423269,116.3016 87.6418837,119.56128 87.554626,120.88704 C87.1771745,120.76656 86.8111911,120.60144 86.4536842,120.40752 C87.2609418,121.66752 88.9512465,122.45232 90.4685319,123.02736 C90.1190028,124.82928 89.9195568,126.65856 89.872687,128.49072 C89.9634349,128.50272 90.0546814,128.51472 90.1454294,128.52672 C92.6654294,128.21472 95.1934072,127.99056 97.4037673,127.6392 C97.4790582,127.6272 97.5538504,127.61712 97.6291413,127.6056" id="Fill-11" fill="#DD957C"></path>
                                    <path d="M86.1869252,117.30576 C86.4422161,116.13984 86.6980055,114.97344 86.953795,113.80752 C86.9587812,112.68864 87.1068698,111.72432 87.5341828,111.15792 C87.6493629,110.63232 87.7645429,110.10672 87.879723,109.58112 C88.0751801,108.69024 88.2816066,107.77392 88.8171191,107.02416 C89.7570083,105.708 91.5041551,105.18 93.14759,104.96448 C97.3429363,104.41584 101.851911,105.4464 104.983213,108.18912 C105.816898,108.9192 106.562327,109.78752 106.902382,110.82144 C107.20903,111.75312 107.163158,112.728 106.973186,113.69664 C107.56554,113.90976 108.165873,114.084 108.780665,114.1968 C111.200443,114.6408 114.350194,113.60208 116.466316,112.46448 C119.077064,111.06 120.432798,106.7424 122.017396,104.4336 C122.45169,103.80048 122.916399,103.19184 123.432465,102.624 C124.549861,101.39328 125.908587,100.35264 126.822548,98.97504 C127.73651,97.59744 128.111967,95.69952 127.129695,94.36608 C126.495457,93.50592 125.430914,93.04944 124.391801,92.7144 C120.967812,91.61088 117.234681,91.41168 113.704986,92.14464 C110.343324,92.84256 107.310748,94.08864 104.003934,92.76432 C100.897064,91.52016 98.6044321,91.9008 95.2686981,92.91504 C91.6592244,94.01232 86.8650416,94.13136 83.5736842,95.74464 C82.1995014,96.41856 81.0816066,97.50768 80.1965651,98.72352 C77.1295845,102.93552 76.8857618,108.88416 79.5987258,113.31552 C80.2075346,114.31008 80.9459834,115.22496 81.7258172,116.10144 C83.0735734,117.6168 84.6412188,119.42496 86.4536842,120.40752 C86.220831,120.04464 86.0577839,119.64528 85.9979501,119.19696 C85.9131856,118.56576 86.0503047,117.9288 86.1869252,117.30576" id="Fill-12" fill="#3B455A"></path>
                                    <path d="M86.953795,113.80752 C86.6980055,114.97344 86.4422161,116.13984 86.1869252,117.30576 C86.0503047,117.9288 85.9131856,118.56576 85.9979501,119.19696 C86.0577839,119.64528 86.220831,120.04464 86.4536842,120.40752 C86.8111911,120.60144 87.1771745,120.76656 87.554626,120.88704 C87.6418837,119.56128 86.9423269,116.3016 86.953795,113.80752" id="Fill-13" fill="#41352B"></path>
                                    <path d="M106.902382,110.82144 C106.562327,109.78752 105.816898,108.9192 104.983213,108.18912 C101.851911,105.4464 97.3429363,104.41584 93.14759,104.96448 C91.5041551,105.18 89.7570083,105.708 88.8171191,107.02416 C88.2816066,107.77392 88.0751801,108.69024 87.879723,109.58112 C87.7645429,110.10672 87.6493629,110.63232 87.5341828,111.15792 C87.5835457,111.09216 87.6359003,111.03072 87.693241,110.97648 C90.312964,108.47616 95.9782271,109.5816 99.081108,110.32992 C101.847424,110.9976 104.324543,112.74336 106.973186,113.69664 C107.163158,112.728 107.20903,111.75312 106.902382,110.82144" id="Fill-14" fill="#3B455A"></path>
                                    <polyline id="Fill-15" fill="#DD957C" points="51.4140166 111.2952 53.0370083 108.05136 52.4975069 107.3712 51.6009972 107.97696 52.1474792 104.91312 50.8416066 102.72624 47.3712465 102.39456 44.3247091 104.2464 44.3486427 107.59824 46.4448199 111.036 46.894072 112.39008 51.8198892 112.35744 51.4140166 111.2952"></polyline>
                                    <path d="M80.1606648,131.31648 L60.0619945,135.29424 L53.8452632,112.344 L51.8198892,112.35744 L52.8774515,115.12752 L48.2119114,116.36496 L46.894072,112.39008 L45.1249861,112.4016 L49.2839335,149.15424 L69.8154017,153.12192 C70.8091413,149.0064 71.9679224,144.87696 72.9481994,142.66512 C74.5701939,139.0056 76.6738504,133.87296 80.1606648,131.31648" id="Fill-16" fill="#305399"></path>
                                    <polyline id="Fill-17" fill="#305399" points="52.8774515 115.12752 51.8198892 112.35744 46.894072 112.39008 48.2119114 116.36496 52.8774515 115.12752"></polyline>
                                    <path d="M152.891634,190.09392 C151.614183,188.32224 147.274737,187.1352 145.31867,186.04704 C140.950305,183.6144 136.75097,180.83856 133.053241,177.50448 C127.798338,172.76544 123.920111,166.95216 121.492853,160.40544 C120.267756,157.10016 119.384211,153.68496 118.654737,150.2472 C118.259335,148.38528 117.912299,146.51376 117.587701,144.63936 C116.884155,140.5848 116.321717,136.40016 114.709197,132.5208 C113.812188,130.36176 112.567645,128.1432 112.975014,125.85072 C107.79241,127.83408 102.876066,126.82224 97.6291413,127.6056 C97.4511357,128.23344 97.2766205,128.8728 96.9704709,129.42336 C94.6952909,129.12432 92.4206094,128.82576 90.1454294,128.52672 C87.3257618,128.87616 84.5160665,129.33504 82.1750693,130.21152 C81.4550693,130.48128 80.785928,130.85808 80.1606648,131.31648 L82.6951247,130.81488 L77.3060942,154.5696 L69.8154017,153.12192 C68.8790028,157.00128 68.0891967,160.86912 67.7361773,163.10928 C66.8541274,168.70176 66.0378947,174.30528 65.4031579,179.92944 C64.694626,186.2064 64.2079778,192.51072 64.1052632,198.82608 C64.093795,199.52784 63.9855956,201.49296 63.9357341,203.84736 C63.8300277,208.8024 63.9816066,215.48016 65.8349584,215.72448 C66.1819945,215.77008 66.5150693,215.59392 66.8187258,215.424 C68.4486981,214.5096 69.8363435,213.40608 71.2219945,212.3136 L71.3032687,200.3544 L75.0817729,188.80224 L88.6460942,190.63152 L88.4232133,189.34368 L120.760388,193.92768 L120.895512,205.20048 C121.128864,205.224 121.260997,205.23792 121.260997,205.23792 C124.714903,204.64128 128.014737,203.4192 131.323047,202.2864 C137.007258,200.33904 142.812133,198.62352 148.146316,195.89616 C149.857562,195.02112 154.579446,192.43488 152.891634,190.09392" id="Fill-18" fill="#305399"></path>
                                    <path d="M86.2627147,205.89696 C87.8822161,205.59264 89.5131856,205.3272 91.1501385,205.0944 L88.6460942,190.63152 L75.0817729,188.80224 L71.3032687,200.3544 L71.2219945,212.3136 C72.5607756,211.25856 73.8975623,210.2136 75.4497507,209.36064 C78.760554,207.54096 82.5485319,206.57376 86.2627147,205.89696" id="Fill-19" fill="#305399"></path>
                                    <path d="M88.4232133,189.34368 L88.6460942,190.63152 L106.663546,193.06176 L105.271911,204.11424 C110.952632,204.22992 119.098006,205.02048 120.895512,205.20048 L120.760388,193.92768 L88.4232133,189.34368" id="Fill-20" fill="#305399"></path>
                                    <path d="M103.153795,204.10656 C103.801496,204.09456 104.516011,204.09888 105.271911,204.11424 L106.663546,193.06176 L88.6460942,190.63152 L91.1501385,205.0944 C95.1270914,204.52848 99.1444321,204.17808 103.153795,204.10656" id="Fill-21" fill="#305399"></path>
                                    <path d="M97.6291413,127.6056 C97.5538504,127.61712 97.4790582,127.6272 97.4037673,127.6392 C95.1934072,127.99056 92.6654294,128.21472 90.1454294,128.52672 C92.4206094,128.82576 94.6952909,129.12432 96.9704709,129.42336 C97.2766205,128.8728 97.4511357,128.23344 97.6291413,127.6056" id="Fill-22" fill="#305399"></path>
                                    <path d="M82.6951247,130.81488 L80.1606648,131.31648 C76.6738504,133.87296 74.5701939,139.0056 72.9481994,142.66512 C71.9679224,144.87696 70.8091413,149.0064 69.8154017,153.12192 L77.3060942,154.5696 L82.6951247,130.81488" id="Fill-23" fill="#305399"></path>
                                    <path d="M224.998338,81.41184 C225.197285,81.33648 225.398726,81.26352 225.600166,81.19248 C225.558283,81.204 225.337895,81.26592 224.974404,81.38784 C224.982382,81.396 224.99036,81.40368 224.998338,81.41184" id="Fill-24" fill="#EAC5B0"></path>
                                    <path d="M263.712299,143.74128 C263.396676,144.06096 262.871136,144.0744 262.538061,143.77008 C258.730637,140.2872 253.742992,138.44064 248.490582,138.56928 C243.240166,138.6984 238.355734,140.78784 234.737285,144.4536 C231.119335,148.11936 229.200665,152.92176 229.334294,157.97664 C229.346759,158.41776 228.984266,158.78448 228.52554,158.796 C228.495623,158.79696 228.465208,158.796 228.435789,158.7936 C228.018449,158.76048 227.685374,158.42928 227.674404,158.01744 C227.528809,152.53584 229.610028,147.32736 233.533629,143.352 C237.45723,139.37712 242.754017,137.11056 248.448698,136.97088 C254.142881,136.83024 259.553352,138.83424 263.682382,142.61088 C264.01446,142.9152 264.027922,143.42112 263.712299,143.74128 Z M193.380166,155.71392 C193.286925,155.73744 193.193684,155.74464 193.102936,155.73744 C192.760886,155.71008 192.458726,155.4792 192.367479,155.14176 C189.930249,146.12784 180.401219,140.67168 171.032742,142.8648 C170.995346,142.87728 170.954958,142.88448 170.915069,142.8912 C170.861219,142.90464 170.80687,142.91424 170.753019,142.92768 C170.309751,143.03904 169.856011,142.78272 169.740332,142.35552 C169.677008,142.1208 169.731856,141.88608 169.864488,141.70128 C168.757562,134.64288 163.907535,128.53488 157.097452,125.6808 C146.155845,121.09536 133.376842,125.93328 128.612576,136.46784 C128.430083,136.87248 127.940942,137.05824 127.520111,136.8816 C127.09928,136.70544 126.907313,136.23456 127.090305,135.82944 C132.219557,124.48752 145.978338,119.27664 157.760609,124.21488 C164.988033,127.24368 170.165152,133.67616 171.453075,141.13728 C181.430859,139.22976 191.379723,145.14048 193.974515,154.73952 C194.090194,155.16672 193.823934,155.60304 193.380166,155.71392 Z M288.489474,122.55936 C289.748476,107.7768 278.325208,94.80816 262.968366,93.58992 C260.895125,93.42528 257.691025,94.26768 255.872576,93.05472 C254.353795,92.04192 253.939945,89.87424 252.821053,88.53024 C251.454848,86.89104 249.858781,85.42992 248.089695,84.19872 C244.521607,81.71664 240.272909,80.21472 235.886593,79.86672 C232.303047,79.58256 228.840166,80.0664 225.666482,81.16944 C225.648532,81.17568 225.632078,81.18384 225.61313,81.18912 C225.612632,81.18912 225.603158,81.19152 225.600166,81.19248 C225.398726,81.26352 225.197285,81.33648 224.998338,81.41184 C224.99036,81.40368 224.982382,81.396 224.974404,81.38784 C222.425485,82.24272 213.016122,86.04432 211.453463,95.86608 C216.788643,96.10992 221.971247,98.49552 225.495956,102.79152 C229.715734,99.39744 235.492188,98.20512 240.797452,99.69024 C245.05662,100.88208 248.578338,103.59984 250.714404,107.34192 C252.850471,111.084 253.345097,115.40304 252.106537,119.5032 C251.994848,119.87424 251.627368,120.10752 251.241939,120.0768 C251.187091,120.07248 251.132244,120.06288 251.077895,120.048 C250.637119,119.92416 250.383823,119.48064 250.511967,119.0568 C252.812576,111.43968 248.246759,103.44 240.33374,101.22528 C235.289751,99.8136 229.774571,101.08608 225.936233,104.544 C225.601662,104.84592 225.075623,104.82912 224.762493,104.50704 C224.722105,104.46576 224.688199,104.42112 224.658781,104.37504 C219.067313,96.90864 208.21097,95.19984 200.440055,100.57056 C200.06759,100.82832 199.54903,100.74624 199.281274,100.3872 C199.014017,100.02864 199.098781,99.52944 199.471745,99.27168 C202.599058,97.11024 206.183601,95.99952 209.770139,95.85936 C211.236066,85.80384 220.145319,81.47904 223.709418,80.13648 C218.35928,75.1128 211.235069,71.77968 203.204377,71.14272 C191.324875,70.2 180.394238,75.38352 173.753186,83.94768 C171.806094,83.37696 169.768753,82.99008 167.657618,82.82256 C157.275956,81.99888 147.016454,86.75088 141.193629,95.06496 C139.725208,97.16208 138.681108,99.39312 137.780609,101.75664 C137.659446,102.07536 137.522327,102.35808 137.371247,102.6144 C143.523158,100.9344 151.987147,99.98688 160.925817,103.10976 C161.35662,103.26 161.579501,103.71888 161.422936,104.1336 C161.266371,104.5488 160.79169,104.76336 160.358892,104.61264 C141.725152,98.1024 124.896898,109.91856 124.729363,110.03856 C124.601717,110.12976 124.455623,110.18016 124.308033,110.19264 C122.133075,111.58464 120.101717,113.17152 118.326648,115.09728 C113.055789,120.81456 109.82626,128.11344 109.174072,135.73056 C107.499723,155.28672 122.610748,172.44672 142.925319,174.05808 C145.215457,174.23952 147.751911,173.17488 149.917396,174.0744 C148.981994,170.80608 148.639945,166.76928 150.337729,162.67968 C150.508255,162.26976 150.991413,162.0696 151.416731,162.23424 C151.843047,162.39792 152.049972,162.86304 151.879945,163.27296 C148.373186,171.72048 154.688144,180.31776 154.752465,180.40368 C154.830249,180.50832 154.875125,180.62496 154.895069,180.74352 C155.994017,182.30304 157.222604,183.5544 158.899945,184.73568 C163.46626,187.95216 168.947535,189.92928 174.587368,190.37664 C179.364598,190.75536 183.974294,190.06032 188.16615,188.50608 C188.217008,188.4672 188.271856,188.4312 188.333684,188.40432 C201.228864,182.6928 204.160222,169.66704 204.188643,169.536 C204.280886,169.10352 204.717673,168.82464 205.16892,168.91392 C205.617673,169.0032 205.907368,169.42512 205.815125,169.85712 C205.707922,170.3616 203.327535,181.01472 193.158781,187.62192 C198.357341,194.41104 206.45385,199.08864 215.87169,199.83552 C220.455956,200.19936 225.323435,199.28112 229.797507,197.98176 C234.516399,196.61136 237.294681,203.412 238.800499,206.36256 C241.017839,210.70752 241.988144,215.916 245.352798,219.65952 C250.203324,225.0552 256.281939,221.05248 257.40831,214.99344 C258.052521,211.5288 258.243989,208.008 258.107368,204.49344 C258.041053,202.76448 257.834626,200.7648 258.777008,199.20048 C259.903878,197.33088 261.720332,197.77824 263.680886,197.48928 C267.447922,196.93248 271.068864,195.5568 274.220609,193.49616 C280.629307,189.30672 284.803213,182.43168 285.439945,174.9984 C285.68626,172.12032 285.405042,169.31952 284.685042,166.67616 C283.382659,167.1 280.74,167.77488 277.192853,167.73456 C276.637396,167.7288 276.045042,167.70336 275.421274,167.65392 C270.866925,167.29248 264.593352,165.62016 257.973241,160.29552 C257.621717,160.01232 257.574349,159.50832 257.868532,159.16944 C258.163213,158.83056 258.686759,158.78592 259.038781,159.06912 C272.685873,170.04624 284.780277,164.94432 284.900443,164.89056 C284.979723,164.856 285.061994,164.83824 285.144266,164.82912 C293.661607,161.75136 300.022438,154.17072 300.819723,144.86352 C301.624986,135.45456 296.518172,126.89472 288.489474,122.55936 L288.489474,122.55936 Z" id="Fill-25" fill="#EAC5B0"></path>
                                    <polyline id="Fill-26" fill="#3B455A" points="343.681662 305.67936 343.361053 305.89152 340.224765 309.84624 344.101994 312.9312 350.745042 308.54256 350.26338 303.96192 343.813296 306.10128 343.681662 305.67936"></polyline>
                                    <path d="M325.270305,245.01936 L325.857673,248.47728 L343.681662,305.67936 L350.0041,301.5024 L350.26338,303.96192 L350.622382,303.8424 L341.392022,244.9464 C336.018449,245.03232 330.644377,245.05344 325.270305,245.01936" id="Fill-27" fill="#3B455A"></path>
                                    <polyline id="Fill-28" fill="#3B455A" points="343.681662 305.67936 343.813296 306.10128 350.26338 303.96192 350.0041 301.5024 343.681662 305.67936"></polyline>
                                    <path d="M302.822161,243.73296 L312.047036,307.4328 L318.633241,307.4328 L318.633241,308.2152 L318.670637,308.2152 L319.839889,244.96368 C319.018172,244.95168 318.195457,244.94544 317.37374,244.93056 C312.643878,244.84896 307.674183,244.56 302.822161,243.73296" id="Fill-29" fill="#3B455A"></path>
                                    <polyline id="Fill-30" fill="#3B455A" points="312.047036 307.4328 311.593296 307.4328 308.073075 310.98576 311.593296 314.53824 318.633241 310.98576 318.633241 308.2152 312.16072 308.2152 312.047036 307.4328"></polyline>
                                    <polyline id="Fill-31" fill="#3B455A" points="312.047036 307.4328 312.16072 308.2152 318.633241 308.2152 318.633241 307.4328 312.047036 307.4328"></polyline>
                                    <path d="M323.093352,202.60656 L323.112798,196.22592 L324.901828,196.3032 C324.608144,195.50784 324.390748,194.688 324.257618,193.86672 C323.708643,190.47504 324.287535,187.04496 325.083324,183.67488 L319.667867,189.08208 L297.309972,173.0856 C295.033795,182.91984 293.772798,192.95328 292.519778,202.96176 C291.303657,212.68272 292.025651,226.4136 285.78349,234.71664 C285.440942,235.17216 285.050526,235.66464 285.086925,236.22624 C285.129806,236.88144 285.732133,237.35712 286.296565,237.72576 C291.199945,240.92784 296.923546,242.7288 302.822161,243.73296 L297.838006,209.31408 L323.093352,202.60656" id="Fill-32" fill="#D7E8F4"></path>
                                    <path d="M328.791524,145.54464 L332.843767,153.09552 C334.868643,145.70592 335.163823,137.99472 335.280997,130.42416 C333.83651,130.33344 332.263878,130.20912 330.637396,130.09968 C330.552632,130.2792 330.4559,130.42944 330.342715,130.53696 C329.412299,131.41872 326.273019,130.80768 325.045429,130.60656 C324.705374,130.55088 324.348366,130.47792 324.090083,130.25712 C323.99385,130.17408 323.91856,130.04304 323.85723,129.88032 C320.002438,129.96192 316.44831,130.53648 314.232964,132.3024 C314.084875,132.42 313.943269,132.54336 313.807147,132.672 C309.718006,136.55088 307.121219,144.80304 304.944765,149.8416 C302.948809,154.46112 301.218116,159.18624 299.751191,163.98576 L314.985873,172.51104 L328.791524,145.54464" id="Fill-33" fill="#D7E8F4"></path>
                                    <path d="M371.608587,231.86592 C365.222327,226.59168 361.040942,221.124 358.43518,214.43184 C357.213075,214.06992 355.915679,213.35424 354.562438,213.06048 C353.12144,212.74704 351.541828,212.92992 349.954238,213.17856 L341.372078,244.81968 L341.392022,244.9464 C341.431413,244.94544 341.470803,244.94544 341.510194,244.94496 C352.104765,244.77264 363.33856,244.17168 372.077285,238.40208 C372.962327,237.81792 373.869806,237.1032 374.112632,236.09712 C374.514515,234.42864 372.959335,232.98096 371.608587,231.86592" id="Fill-34" fill="#D7E8F4"></path>
                                    <path d="M319.842382,244.81968 L319.839889,244.96368 C321.649861,244.98864 323.460332,245.00784 325.270305,245.01936 L323.134737,232.45584 L319.842382,244.81968" id="Fill-35" fill="#D7E8F4"></path>
                                    <path d="M324.901828,196.3032 L323.112798,196.22592 L323.093352,202.60656 L328.233573,201.24144 C326.734737,199.944 325.599889,198.19248 324.901828,196.3032" id="Fill-36" fill="#D7E8F4"></path>
                                    <path d="M349.954238,213.17856 C347.395845,213.5784 344.814515,214.14768 342.752742,213.08304 C340.140997,211.73424 339.857285,208.33872 338.798726,205.67328 C337.740665,203.0088 333.677452,200.81856 332.127258,203.25024 C331.740332,203.1624 331.365374,203.04768 331.002881,202.90992 L323.134737,232.45584 L325.270305,245.01936 C330.644377,245.05344 336.018449,245.03232 341.392022,244.9464 L341.372078,244.81968 L349.954238,213.17856" id="Fill-37" fill="#D7E8F4"></path>
                                    <path d="M323.134737,232.45584 L323.008587,231.71376 L323.093352,202.60656 L297.838006,209.31408 L302.822161,243.73296 C307.674183,244.56 312.643878,244.84896 317.37374,244.93056 C318.195457,244.94544 319.018172,244.95168 319.839889,244.96368 L319.842382,244.81968 L323.134737,232.45584" id="Fill-38" fill="#D7E8F4"></path>
                                    <path d="M323.093352,202.60656 L323.008587,231.71376 L323.134737,232.45584 L331.002881,202.90992 C329.979224,202.52304 329.052299,201.94992 328.233573,201.24144 L323.093352,202.60656" id="Fill-39" fill="#D7E8F4"></path>
                                    <path d="M330.637396,130.09968 C330.978947,129.37344 331.101108,128.14368 331.153463,127.07136 C328.999446,127.93296 326.580665,128.14656 324.006316,127.42848 C323.850249,127.3848 323.69867,127.332 323.546094,127.28112 C323.606925,128.24064 323.632355,129.28704 323.85723,129.88032 C326.083546,129.83376 328.409086,129.9504 330.637396,130.09968" id="Fill-40" fill="#DD957C"></path>
                                    <path d="M325.045429,130.60656 C326.273019,130.80768 329.412299,131.41872 330.342715,130.53696 C330.4559,130.42944 330.552632,130.2792 330.637396,130.09968 C328.409086,129.9504 326.083546,129.83376 323.85723,129.88032 C323.91856,130.04304 323.99385,130.17408 324.090083,130.25712 C324.348366,130.47792 324.705374,130.55088 325.045429,130.60656" id="Fill-41" fill="#DD957C"></path>
                                    <path d="M318.996731,100.55136 C318.976787,100.48368 318.955346,100.41648 318.936898,100.34784 C318.562936,98.89104 318.877064,97.35072 319.593573,96.0024 C319.320831,95.84976 319.0441,95.70288 318.760388,95.56992 C315.565263,97.30992 313.336454,100.59936 312.970471,104.11584 C312.707202,106.63776 313.411247,109.22592 314.851247,111.34416 C314.918061,110.05392 315.067147,108.76464 315.269584,107.4936 C315.770194,104.34768 317.138892,102.06336 318.996731,100.55136" id="Fill-42" fill="#3B455A"></path>
                                    <path d="M330.362161,124.02816 L329.436233,125.10768 C330.458393,125.07696 331.21928,125.18016 331.210803,125.37744 C331.19385,125.75664 331.187368,126.3816 331.153463,127.07136 C332.6159,126.48672 333.956177,125.60352 335.138393,124.5072 C334.622825,121.05312 333.081108,117.74112 331.067701,114.81408 C328.541219,111.14208 325.29723,107.98992 322.100609,104.83968 C322.052244,104.7912 322.002881,104.74272 321.954017,104.69424 C319.093463,106.82592 317.137895,110.11392 316.881108,113.59872 C316.097285,112.94352 315.419169,112.17936 314.851247,111.34416 C314.714127,114.0144 314.937008,116.68848 315.816565,119.21184 C317.068587,122.80656 319.839391,126.05568 323.546094,127.28112 C323.501219,126.57408 323.436898,125.91504 323.256898,125.52576 C325.625319,125.02656 327.99374,124.52736 330.362161,124.02816" id="Fill-43" fill="#DD957C"></path>
                                    <path d="M331.153463,127.07136 C331.187368,126.3816 331.19385,125.75664 331.210873,125.37744 C331.21928,125.18016 330.458393,125.07696 329.436233,125.10768 L330.362161,124.02816 C327.99374,124.52736 325.625319,125.02656 323.256898,125.52576 C323.436898,125.91504 323.501219,126.57408 323.546094,127.28112 C323.69867,127.332 323.850249,127.3848 324.006316,127.42848 C326.580665,128.14656 328.999446,127.93296 331.153463,127.07136" id="Fill-44" fill="#DD957C"></path>
                                    <path d="M316.881108,113.59872 C317.137895,110.11392 319.093463,106.82592 321.954017,104.69424 C320.722936,103.476 319.48338,102.16896 318.996731,100.55136 C317.138892,102.06336 315.770194,104.34768 315.269584,107.4936 C315.067147,108.76464 314.918061,110.05392 314.851247,111.34416 C315.419169,112.17936 316.097285,112.94352 316.881108,113.59872" id="Fill-45" fill="#DD957C"></path>
                                    <polyline id="Fill-46" fill="#DD957C" points="290.531801 161.79216 289.231413 158.43936 288.35385 158.34336 288.187812 159.3792 286.280609 156.89328 283.752133 156.28944 281.116454 158.4576 280.399446 161.83584 282.912964 164.12688 286.918338 165.0456 288.973629 166.0152 290.874349 161.93712 290.531801 161.79216"></polyline>
                                    <path d="M299.751191,163.98576 L291.953352,159.6216 L290.874349,161.93712 L294.394571,163.41936 L292.104931,167.49312 L288.973629,166.0152 L288.587202,166.84464 L297.309972,173.0856 C297.529363,172.14 297.75374,171.19584 297.992576,170.25408 C298.525596,168.1512 299.116454,166.06224 299.751191,163.98576" id="Fill-47" fill="#D7E8F4"></path>
                                    <path d="M325.083324,183.67488 C325.276288,182.856 325.481717,182.04096 325.688144,181.23024 C328.020665,172.04736 330.08892,162.75456 332.697673,153.6408 C332.749529,153.45936 332.794404,153.27696 332.843767,153.09552 L328.791524,145.54464 L314.985873,172.51104 L299.751191,163.98576 C299.116454,166.06224 298.525596,168.1512 297.992576,170.25408 C297.75374,171.19584 297.529363,172.14 297.309972,173.0856 L319.667867,189.08208 L325.083324,183.67488" id="Fill-48" fill="#D7E8F4"></path>
                                    <polyline id="Fill-49" fill="#D7E8F4" points="294.394571 163.41936 290.874349 161.93712 288.973629 166.0152 292.104931 167.49312 294.394571 163.41936"></polyline>
                                    <path d="M322.88892,98.61888 C328.71723,97.12848 336.186981,100.19328 339.343213,106.4544 C342.1559,112.03392 339.96,120.03408 335.138393,124.5072 C335.26903,125.3856 335.336842,126.27312 335.325374,127.1664 C335.310914,128.2488 335.297452,129.33504 335.280997,130.42416 C336.441773,130.49664 337.521773,130.54752 338.474127,130.54752 C339.843324,144.42768 342.486482,158.2896 345.720997,171.86544 C348.516731,183.59712 353.844931,195.0336 356.216842,206.74944 C356.773296,209.4984 357.504765,212.0424 358.43518,214.43184 C359.999834,214.89504 361.440332,214.77936 362.714792,212.45856 C360.96964,210.93936 361.018504,208.40208 362.834958,206.86416 C364.563158,205.40016 366.978947,204.98736 368.985873,203.9016 C374.123601,201.12336 375.593019,194.34336 374.003435,188.88096 C372.413352,183.41856 368.513684,178.90992 364.931136,174.40656 C356.13856,163.3536 352.62831,147.55392 353.018726,133.76976 C353.278504,124.6032 354.185983,115.18032 351.208753,106.46976 C347.688033,96.16656 339.133296,90.14256 328.070028,90.77184 C324.918283,90.95088 322.482548,92.21904 320.480111,94.66944 C320.143047,95.08224 319.844377,95.53056 319.593573,96.0024 C320.829141,96.69504 321.945042,97.58352 322.88892,98.61888" id="Fill-50" fill="#3B455A"></path>
                                    <path d="M345.720997,171.86544 C342.486482,158.2896 339.843324,144.42768 338.474127,130.54752 C337.521773,130.54752 336.441773,130.49664 335.280997,130.42416 C335.163823,137.99472 334.868643,145.70592 332.843767,153.09552 L340.821607,167.96112 L325.083324,183.67488 C324.287535,187.04496 323.708643,190.47504 324.257618,193.86672 C324.390748,194.688 324.608144,195.50784 324.901828,196.3032 L350.20903,197.39904 L351.334404,208.0896 L349.954238,213.17856 C351.541828,212.92992 353.12144,212.74704 354.562438,213.06048 C355.915679,213.35424 357.213075,214.06992 358.43518,214.43184 C357.504765,212.0424 356.773296,209.4984 356.216842,206.74944 C353.844931,195.0336 348.516731,183.59712 345.720997,171.86544" id="Fill-51" fill="#3B455A"></path>
                                    <path d="M350.20903,197.39904 L324.901828,196.3032 C325.599889,198.19248 326.734737,199.944 328.233573,201.24144 L331.691468,200.3232 L331.002881,202.90992 C331.365374,203.04768 331.740332,203.1624 332.127258,203.25024 C333.677452,200.81856 337.740665,203.0088 338.798726,205.67328 C339.857285,208.33872 340.140997,211.73424 342.752742,213.08304 C344.814515,214.14768 347.395845,213.5784 349.954238,213.17856 L351.334404,208.0896 L350.20903,197.39904" id="Fill-52" fill="#3B455A"></path>
                                    <path d="M328.233573,201.24144 C329.052299,201.94992 329.979224,202.52304 331.002881,202.90992 L331.691468,200.3232 L328.233573,201.24144" id="Fill-53" fill="#3B455A"></path>
                                    <path d="M318.936898,100.34784 C318.955346,100.41648 318.976787,100.48368 318.996731,100.55136 C320.13856,99.62208 321.463878,98.9832 322.88892,98.61888 C321.945042,97.58352 320.829141,96.69504 319.593573,96.0024 C318.877064,97.35072 318.562936,98.89104 318.936898,100.34784" id="Fill-54" fill="#3B455A"></path>
                                    <path d="M339.343213,106.4544 C336.186981,100.19328 328.71723,97.12848 322.88892,98.61888 C324.012299,99.85008 324.894848,101.28528 325.450803,102.83472 L325.813795,102.7392 C324.413684,103.1592 323.110305,103.83264 321.954017,104.69424 C322.002881,104.74272 322.052244,104.7912 322.100609,104.83968 C325.29723,107.98992 328.541219,111.14208 331.067701,114.81408 C333.081108,117.74112 334.622825,121.05312 335.138393,124.5072 C339.96,120.03408 342.1559,112.03392 339.343213,106.4544" id="Fill-55" fill="#3B455A"></path>
                                    <path d="M325.450803,102.83472 C324.894848,101.28528 324.012299,99.85008 322.88892,98.61888 C321.463878,98.9832 320.13856,99.62208 318.996731,100.55136 C319.48338,102.16896 320.722936,103.476 321.954017,104.69424 C323.110305,103.83264 324.413684,103.1592 325.813795,102.7392 L325.450803,102.83472" id="Fill-56" fill="#3B455A"></path>
                                    <path d="M332.843767,153.09552 C332.794404,153.27696 332.749529,153.45936 332.697673,153.6408 C330.08892,162.75456 328.020665,172.04736 325.688144,181.23024 C325.481717,182.04096 325.276288,182.856 325.083324,183.67488 L340.821607,167.96112 L332.843767,153.09552" id="Fill-57" fill="#3B455A"></path>
                                    <path d="M87.8812188,67.32864 C93.9727978,48.11472 82.7310249,27.78576 62.7724654,21.9216 C42.8134072,16.05792 21.5888643,26.98224 15.5660942,46.21632 C12.5759003,55.76736 13.8628255,65.58432 18.3678116,73.75728 C21.8750693,80.1192 23.6621053,87.22848 23.4217729,94.42704 L23.0468144,105.65808 L46.7360111,112.61808 L52.6111911,103.60272 C56.6729086,97.36992 62.4383934,92.36304 69.2145706,88.9608 C77.8829917,84.60864 84.8022715,77.04096 87.8812188,67.32864" id="Fill-58" fill="#7DB5DB"></path>
                                    <path d="M36.7223269,122.95872 L25.17241,119.56512 C21.9,118.60368 19.8382271,115.45488 20.5871468,112.44864 L23.2243213,100.7688 L49.4340166,108.2928 L44.6542936,119.51952 C43.53241,122.41632 39.9947368,123.91968 36.7223269,122.95872" id="Fill-59" fill="#BCBEC0"></path>
                                    <path d="M45.5069252,112.57008 C38.1044875,110.724 30.8855402,108.20928 23.4806094,106.37328 C22.8229363,106.21056 22.5826039,107.13648 23.2128532,107.34384 C30.4507479,109.72608 37.9209972,111.444 45.1628809,113.81616 C45.9756233,114.08256 46.3485873,112.77984 45.5069252,112.57008" id="Fill-60" fill="#878D91"></path>
                                    <path d="M44.538615,115.62576 C37.1361773,113.77968 29.9167313,111.26496 22.5118006,109.42896 C21.854626,109.26624 21.613795,110.19216 22.2440443,110.39952 C29.4824377,112.78176 36.9521884,114.49968 44.1945706,116.87184 C45.0068144,117.13824 45.380277,115.83552 44.538615,115.62576" id="Fill-61" fill="#878D91"></path>
                                    <path d="M71.3272022,5.0976 C70.6161773,7.3392 66.8232133,15.03504 65.2959557,14.58624 C63.7681994,14.13744 65.0850416,5.71392 65.7960665,3.47232 C66.5065928,1.23024 68.3210526,-0.2232 69.8483102,0.2256 C71.3755679,0.6744 72.0382271,2.85552 71.3272022,5.0976" id="Fill-62" fill="#7DB5DB"></path>
                                    <path d="M101.864377,27.60048 C99.6345706,28.54272 92.1398892,33.07056 92.7821053,34.4784 C93.4238227,35.88624 101.959114,33.64032 104.18892,32.69856 C106.418227,31.75632 107.705152,29.8512 107.063435,28.44384 C106.421717,27.036 104.093684,26.65824 101.864377,27.60048" id="Fill-63" fill="#7DB5DB"></path>
                                    <path d="M103.893241,67.51296 C101.493407,67.11696 93.0852632,64.46352 93.3550139,62.94864 C93.6247645,61.43328 102.471191,61.6296 104.871025,62.0256 C107.270859,62.42208 108.997064,63.97152 108.727313,65.48688 C108.457562,67.00224 106.293075,67.90944 103.893241,67.51296" id="Fill-64" fill="#7DB5DB"></path>
                                    <path d="M31.4215512,3.97824 C32.8166759,5.8992 36.7721884,13.5192 35.4633241,14.4 C34.1544598,15.28128 28.0773407,9.08976 26.6822161,7.1688 C25.2865928,5.24784 25.2167867,2.97648 26.525651,2.0952 C27.8340166,1.2144 30.0264266,2.05728 31.4215512,3.97824" id="Fill-65" fill="#7DB5DB"></path>
                                    <path d="M3.49612188,31.7184 C5.71695291,32.67936 14.2313019,34.99824 14.8859834,33.59616 C15.5411634,32.19408 8.08886427,27.60144 5.86803324,26.64048 C3.64720222,25.67952 1.31617729,26.03664 0.66099723,27.43872 C0.00631578947,28.8408 1.27578947,30.75696 3.49612188,31.7184" id="Fill-66" fill="#7DB5DB"></path>
                                    <path d="M60.658338,68.5632 C61.0008864,67.71744 61.5079778,66.93552 62.0664266,66.20784 C62.3187258,65.87808 62.6029363,65.58144 62.9245429,65.31408 C62.9499723,65.29296 63.0556787,65.22096 63.1593906,65.16096 C63.1514127,65.22096 63.1514127,65.30784 63.1209972,65.42544 C62.5675346,67.57008 61.6640443,69.79488 60.3432133,71.60688 C60.1796676,71.83152 60.0011634,72.04368 59.8116898,72.24528 C59.8984488,70.97952 60.1871468,69.72528 60.658338,68.5632 Z M53.8776731,60.84 C53.6896953,61.69632 53.1636565,62.66592 52.9552355,63.15744 C52.5742936,64.0536 52.1165651,64.91952 51.6094737,65.75712 C51.9465374,63.9144 52.6755125,62.13696 53.8776731,60.84 Z M61.7248753,79.00656 C60.8228809,77.84784 60.2599446,76.51152 59.9837119,75.11424 C61.7881994,73.9416 63.0297507,72.0168 63.8868698,70.14 C64.4109141,68.99328 64.8312465,67.81152 65.2306371,66.62016 C65.6155679,65.47104 65.7686427,64.44432 64.9813296,63.42768 C64.2787812,62.52048 62.8866482,62.74368 61.994626,63.16128 C60.9654848,63.6432 60.205097,64.704 59.5853186,65.59104 C58.333795,67.3824 57.6736288,69.50352 57.4278116,71.6328 C57.3420499,72.37536 57.3280886,73.12464 57.379446,73.87008 C56.7437119,74.10576 56.065097,74.24064 55.3610526,74.25024 C53.1935734,74.27808 52.0422715,72.74256 51.6418837,70.85376 C51.5760665,70.5432 51.5232133,70.2192 51.4818283,69.88608 C51.7640443,69.53136 52.0392798,69.17424 52.3030471,68.81904 C53.5854848,67.09056 54.5956787,65.18304 55.4044321,63.2112 C56.0750693,61.5768 56.759169,59.58912 55.399446,58.10448 C54.9621607,57.62736 54.2810526,57.69072 53.7993906,58.04352 C50.3175623,60.59184 49.0809972,64.9656 49.2345706,69.06336 C48.494626,69.92304 47.6893629,70.72992 46.8387258,71.49072 C45.9028255,72.32736 44.2344598,73.55232 42.8772299,72.93552 C41.613241,72.36192 41.0627701,70.45296 40.7182271,69.2712 C40.465928,68.40528 40.3332964,67.52016 40.2899169,66.6288 C40.5930748,66.25248 40.8857618,65.868 41.1669806,65.4744 C42.2739058,63.9288 43.1549584,62.23728 43.8689751,60.49344 C44.4658172,59.03712 45.1798338,56.95584 43.7109141,55.74288 C43.2836011,55.39008 42.5486427,55.19808 42.1093629,55.68144 C39.6103047,58.43328 38.2161773,61.848 38.0830471,65.50272 C38.0785596,65.62656 38.0800554,65.75088 38.0790582,65.8752 C36.252133,68.09232 33.9490305,69.96624 31.4220499,71.39184 C30.2877008,72.03216 31.2196122,73.7424 32.3833795,73.13088 C34.6042105,71.96496 36.6101385,70.48896 38.3607756,68.76144 C38.4998892,69.44784 38.6868698,70.12416 38.919723,70.7808 C39.5589474,72.58176 40.5083102,74.37168 42.467867,75.06048 C44.2977839,75.70416 46.286759,74.64192 47.7098061,73.62912 C48.3929086,73.14288 49.0326316,72.58272 49.6349584,71.98032 C50.1031579,73.64592 51.066482,75.14064 52.7802216,75.90816 C54.3573407,76.61424 56.1094737,76.59024 57.7354571,76.11696 C58.1159003,77.64528 58.7680886,79.11168 59.654626,80.4216 C60.6668144,81.91728 62.8357895,80.4336 61.7248753,79.00656 L61.7248753,79.00656 Z" id="Fill-67" fill="#FFFFFF"></path>
                                    <path d="M65.4026593,74.4936 C57.980277,84.65472 50.3744044,94.70016 42.5032687,104.544 C41.5608864,105.72288 43.432687,107.16432 44.3720776,105.98592 C52.233241,96.12048 59.8181717,86.064 67.0311357,75.74976 C67.7745706,74.6856 66.18,73.42944 65.4026593,74.4936" id="Fill-68" fill="#FFFFFF"></path>
                                    <path d="M30.6791136,63.51168 C30.0972299,75.92112 29.2949584,88.32816 28.1576177,100.7016 C28.0214958,102.18336 30.4048753,102.43008 30.5385042,100.95024 C31.6559003,88.56336 32.433241,76.15776 32.7533518,63.72768 C32.7862604,62.4456 30.7399446,62.21184 30.6791136,63.51168" id="Fill-69" fill="#FFFFFF"></path>
                                    <path d="M128.796066,106.86816 L130.566648,102.33312 C130.566648,102.33312 133.141994,99.8088 134.429917,99.8088 L138.293186,101.10672 L138.293186,107.67216 L133.544875,109.66176 L128.796066,106.86816" id="Fill-70" fill="#DD957C"></path>
                                    <polyline id="Fill-71" fill="#7DB5DB" points="292.445983 19.89552 266.240776 52.37472 280.871634 58.1856 267.896177 89.9232 297.455069 56.81712 281.841939 48.22992 292.445983 19.89552"></polyline>
                                    <polyline id="Fill-72" fill="#7DB5DB" points="313.950748 55.43808 287.578006 81.6168 298.864155 88.0224 279.204266 115.75824 308.072576 87.33696 300.711025 78.54624 313.950748 55.43808"></polyline>
                                </g>
                                <text id="rapid-fire-ideation" fill="#FFFFFF" font-family="Gravity-Bold, Gravity" font-size="60" font-weight="bold">
                                    <tspan x="14" y="59">rapid-fire</tspan>
                                    <tspan x="14" y="131">ideation </tspan>
                                </text>
                            </g>
                        </g>
                    </g>
                </g>
            </g>
        </g>
    </g>
</svg>