<?xml version="1.0" encoding="UTF-8"?>
<svg width="370px" height="473px" viewBox="0 0 370 473" version="1.1" xmlns="http://www.w3.org/2000/svg" xmlns:xlink="http://www.w3.org/1999/xlink">
    <!-- Generator: Sketch 56.3 (81716) - https://sketch.com -->
    <title>Group 12</title>
    <desc>Created with Sketch.</desc>
    <g id="Page-1" stroke="none" stroke-width="1" fill="none" fill-rule="evenodd">
        <g id="Log-In-Copy-2" transform="translate(-722.000000, -294.000000)">
            <g id="Group-7" transform="translate(250.000000, 187.000000)">
                <g id="Group-9">
                    <g id="Group-11" transform="translate(380.000000, 0.000000)">
                        <g id="Group-12" transform="translate(92.000000, 87.000000)">
                            <g id="59893" transform="translate(0.000000, 175.000000)">
                                <polyline id="Fill-4" fill="#3B455A" points="49.6432177 306.2424 48.0458017 311.19216 54.6155258 317.39088 59.7418194 314.78544 57.0704399 309.78384 56.7806715 309.51024 56.507138 309.92208 49.6432177 306.2424"></polyline>
                                <path d="M85.1125452,205.89696 C81.4478848,206.57376 77.7104133,207.54096 74.443754,209.36064 C72.9122615,210.2136 71.5932986,211.25856 70.2723679,212.3136 L69.9840753,255.26448 L49.2609596,306.03696 L49.6432177,306.2424 L50.5007158,303.58464 L56.7806715,309.51024 L94.7983867,252.30624 L96.806595,245.32272 L89.9348033,205.0944 C88.3196765,205.3272 86.7104532,205.59264 85.1125452,205.89696" id="Fill-5" fill="#587BC9"></path>
                                <polyline id="Fill-6" fill="#587BC9" points="49.6432177 306.2424 56.507138 309.92208 56.7806715 309.51024 50.5007158 303.58464 49.6432177 306.2424"></polyline>
                                <path d="M100.22724,233.42688 L96.806595,245.32272 L97.5883302,249.90096 L102.362868,310.45776 L102.406653,310.45776 L102.406653,309.58032 L110.053784,309.58032 L119.753401,244.8288 L119.283572,205.20048 C117.510032,205.02048 109.473263,204.22992 103.868286,204.11424 L100.22724,233.42688" id="Fill-7" fill="#587BC9"></path>
                                <path d="M103.868286,204.11424 C103.122464,204.09888 102.417476,204.09456 101.778411,204.10656 C97.8225064,204.17808 93.8587302,204.52848 89.9348033,205.0944 L96.806595,245.32272 L100.22724,233.42688 L103.868286,204.11424" id="Fill-8" fill="#587BC9"></path>
                                <polyline id="Fill-9" fill="#3B455A" points="102.406653 310.45776 102.406653 313.56816 110.581172 317.556 114.668432 313.56816 110.581172 309.58032 110.053784 309.58032 109.922429 310.45776 102.406653 310.45776"></polyline>
                                <polyline id="Fill-10" fill="#587BC9" points="102.406653 310.45776 109.922429 310.45776 110.053784 309.58032 102.406653 309.58032 102.406653 310.45776"></polyline>
                                <path d="M96.3274194,127.6056 C96.6186637,126.56256 96.9187634,125.55072 97.8367734,125.02656 C98.6706571,124.5504 99.7288776,124.68816 100.641968,124.37904 C102.3609,123.79632 103.10131,121.8696 103.627714,120.16992 C104.085735,118.69248 104.543756,117.21456 105.001777,115.73712 C105.207911,115.07184 105.413061,114.38544 105.546876,113.69664 C102.933549,112.74336 100.489458,110.9976 97.7600266,110.32992 C94.6985175,109.5816 89.1087911,108.47616 86.5239978,110.97648 C86.4674216,111.03072 86.4157651,111.09216 86.3670604,111.15792 C86.1761773,112.04064 85.9852942,112.92432 85.7944111,113.80752 C85.7830958,116.3016 86.4733252,119.56128 86.387231,120.88704 C86.0148122,120.76656 85.6537086,120.60144 85.3009684,120.40752 C86.0974626,121.66752 87.7652299,122.45232 89.2622848,123.02736 C88.9174161,124.82928 88.7206294,126.65856 88.6743845,128.49072 C88.7639224,128.50272 88.8539524,128.51472 88.9434903,128.52672 C91.4298903,128.21472 93.9241618,127.99056 96.1050504,127.6392 C96.1793374,127.6272 96.2531324,127.61712 96.3274194,127.6056" id="Fill-11" fill="#DD957C"></path>
                                <path d="M85.0377662,117.30576 C85.2896532,116.13984 85.5420321,114.97344 85.7944111,113.80752 C85.7993307,112.68864 85.9454449,111.72432 86.3670604,111.15792 C86.4807047,110.63232 86.594349,110.10672 86.7079934,109.58112 C86.9008443,108.69024 87.1045186,107.77392 87.6328909,107.02416 C88.5602482,105.708 90.2840997,105.18 91.9056222,104.96448 C96.0450305,104.41584 100.493886,105.4464 103.583437,108.18912 C104.406006,108.9192 105.141496,109.78752 105.477017,110.82144 C105.779577,111.75312 105.734316,112.728 105.546876,113.69664 C106.131333,113.90976 106.723661,114.084 107.330256,114.1968 C109.717771,114.6408 112.825525,113.60208 114.913432,112.46448 C117.48937,111.06 118.827027,106.7424 120.390498,104.4336 C120.819001,103.80048 121.277514,103.19184 121.786699,102.624 C122.889197,101.39328 124.229806,100.35264 125.131581,98.97504 C126.033356,97.59744 126.403807,95.69952 125.434633,94.36608 C124.808851,93.50592 123.758502,93.04944 122.733243,92.7144 C119.354907,91.61088 115.671552,91.41168 112.18892,92.14464 C108.87208,92.84256 105.879938,94.08864 102.617214,92.76432 C99.5517695,91.52016 97.2897064,91.9008 93.9984488,92.91504 C90.4371014,94.01232 85.706841,94.13136 82.4593684,95.74464 C81.103508,96.41856 80.0005186,97.50768 79.1272776,98.72352 C76.10119,102.93552 75.8606183,108.88416 78.5374094,113.31552 C79.1381008,114.31008 79.8667036,115.22496 80.6361396,116.10144 C81.9659258,117.6168 83.5126693,119.42496 85.3009684,120.40752 C85.0712199,120.04464 84.9103468,119.64528 84.8513108,119.19696 C84.7676765,118.56576 84.9029673,117.9288 85.0377662,117.30576" id="Fill-12" fill="#3B455A"></path>
                                <path d="M85.7944111,113.80752 C85.5420321,114.97344 85.2896532,116.13984 85.0377662,117.30576 C84.9029673,117.9288 84.7676765,118.56576 84.8513108,119.19696 C84.9103468,119.64528 85.0712199,120.04464 85.3009684,120.40752 C85.6537086,120.60144 86.0148122,120.76656 86.387231,120.88704 C86.4733252,119.56128 85.7830958,116.3016 85.7944111,113.80752" id="Fill-13" fill="#41352B"></path>
                                <path d="M105.477017,110.82144 C105.141496,109.78752 104.406006,108.9192 103.583437,108.18912 C100.493886,105.4464 96.0450305,104.41584 91.9056222,104.96448 C90.2840997,105.18 88.5602482,105.708 87.6328909,107.02416 C87.1045186,107.77392 86.9008443,108.69024 86.7079934,109.58112 C86.594349,110.10672 86.4807047,110.63232 86.3670604,111.15792 C86.4157651,111.09216 86.4674216,111.03072 86.5239978,110.97648 C89.1087911,108.47616 94.6985175,109.5816 97.7600266,110.32992 C100.489458,110.9976 102.933549,112.74336 105.546876,113.69664 C105.734316,112.728 105.779577,111.75312 105.477017,110.82144" id="Fill-14" fill="#3B455A"></path>
                                <polyline id="Fill-15" fill="#DD957C" points="50.7284964 111.2952 52.3298482 108.05136 51.7975402 107.3712 50.9129839 107.97696 51.4521795 104.91312 50.1637186 102.72624 46.7396299 102.39456 43.733713 104.2464 43.7573274 107.59824 45.8255557 111.036 46.2688177 112.39008 51.1289573 112.35744 50.7284964 111.2952"></polyline>
                                <path d="M79.091856,131.31648 L59.2611679,135.29424 L53.1273263,112.344 L51.1289573,112.35744 L52.1724188,115.12752 L47.5690859,116.36496 L46.2688177,112.39008 L44.5233197,112.4016 L48.6268144,149.15424 L68.8845296,153.12192 C69.8650194,149.0064 71.0083501,144.87696 71.9755568,142.66512 C73.5759247,139.0056 75.6515324,133.87296 79.091856,131.31648" id="Fill-16" fill="#305399"></path>
                                <polyline id="Fill-17" fill="#305399" points="52.1724188 115.12752 51.1289573 112.35744 46.2688177 112.39008 47.5690859 116.36496 52.1724188 115.12752"></polyline>
                                <path d="M150.853079,190.09392 C149.59266,188.32224 145.311074,187.1352 143.381088,186.04704 C139.070967,183.6144 134.927623,180.83856 131.279198,177.50448 C126.09436,172.76544 122.267843,166.95216 119.872948,160.40544 C118.664186,157.10016 117.792421,153.68496 117.072674,150.2472 C116.682544,148.38528 116.340135,146.51376 116.019865,144.63936 C115.3257,140.5848 114.770761,136.40016 113.179741,132.5208 C112.294693,130.36176 111.066743,128.1432 111.46868,125.85072 C106.355178,127.83408 101.504386,126.82224 96.3274194,127.6056 C96.1517873,128.23344 95.9795989,128.8728 95.6775313,129.42336 C93.432687,129.12432 91.1883346,128.82576 88.9434903,128.52672 C86.1614183,128.87616 83.3891856,129.33504 81.0794017,130.21152 C80.3690017,130.48128 79.7087823,130.85808 79.091856,131.31648 L81.592523,130.81488 L76.2753463,154.5696 L68.8845296,153.12192 C67.9606161,157.00128 67.1813407,160.86912 66.8330283,163.10928 C65.9627391,168.70176 65.1573895,174.30528 64.5311158,179.92944 C63.832031,186.2064 63.3518715,192.51072 63.2505263,198.82608 C63.2392111,199.52784 63.1324543,201.49296 63.0832576,203.84736 C62.9789607,208.8024 63.1285186,215.48016 64.957159,215.72448 C65.2995679,215.77008 65.6282017,215.59392 65.9278094,215.424 C67.5360488,214.5096 68.9051922,213.40608 70.2723679,212.3136 L70.3525584,200.3544 L74.0806825,188.80224 L87.4641463,190.63152 L87.2442371,189.34368 L119.150249,193.92768 L119.283572,205.20048 C119.513813,205.224 119.644184,205.23792 119.644184,205.23792 C123.052038,204.64128 126.307874,203.4192 129.572073,202.2864 C135.180494,200.33904 140.907971,198.62352 146.171032,195.89616 C147.859461,195.02112 152.518387,192.43488 150.853079,190.09392" id="Fill-18" fill="#305399"></path>
                                <path d="M85.1125452,205.89696 C86.7104532,205.59264 88.3196765,205.3272 89.9348033,205.0944 L87.4641463,190.63152 L74.0806825,188.80224 L70.3525584,200.3544 L70.2723679,212.3136 C71.5932986,211.25856 72.9122615,210.2136 74.443754,209.36064 C77.7104133,207.54096 81.4478848,206.57376 85.1125452,205.89696" id="Fill-19" fill="#305399"></path>
                                <path d="M87.2442371,189.34368 L87.4641463,190.63152 L105.241365,193.06176 L103.868286,204.11424 C109.473263,204.22992 117.510032,205.02048 119.283572,205.20048 L119.150249,193.92768 L87.2442371,189.34368" id="Fill-20" fill="#305399"></path>
                                <path d="M101.778411,204.10656 C102.417476,204.09456 103.122464,204.09888 103.868286,204.11424 L105.241365,193.06176 L87.4641463,190.63152 L89.9348033,205.0944 C93.8587302,204.52848 97.8225064,204.17808 101.778411,204.10656" id="Fill-21" fill="#305399"></path>
                                <path d="M96.3274194,127.6056 C96.2531324,127.61712 96.1793374,127.6272 96.1050504,127.6392 C93.9241618,127.99056 91.4298903,128.21472 88.9434903,128.52672 C91.1883346,128.82576 93.432687,129.12432 95.6775313,129.42336 C95.9795989,128.8728 96.1517873,128.23344 96.3274194,127.6056" id="Fill-22" fill="#305399"></path>
                                <path d="M81.592523,130.81488 L79.091856,131.31648 C75.6515324,133.87296 73.5759247,139.0056 71.9755568,142.66512 C71.0083501,144.87696 69.8650194,149.0064 68.8845296,153.12192 L76.2753463,154.5696 L81.592523,130.81488" id="Fill-23" fill="#305399"></path>
                                <path d="M221.99836,81.41184 C222.194655,81.33648 222.393409,81.26352 222.592164,81.19248 C222.550839,81.204 222.333389,81.26592 221.974746,81.38784 C221.982617,81.396 221.990489,81.40368 221.99836,81.41184" id="Fill-24" fill="#EAC5B0"></path>
                                <path d="M260.196135,143.74128 C259.88472,144.06096 259.366187,144.0744 259.037553,143.77008 C255.280895,140.2872 250.359752,138.44064 245.177374,138.56928 C239.996964,138.6984 235.177658,140.78784 231.607455,144.4536 C228.037744,148.11936 226.144656,152.92176 226.276503,157.97664 C226.288802,158.41776 225.931142,158.78448 225.478533,158.796 C225.449015,158.79696 225.419005,158.796 225.389979,158.7936 C224.978203,158.76048 224.649569,158.42928 224.638746,158.01744 C224.495091,152.53584 226.548561,147.32736 230.419847,143.352 C234.291134,139.37712 239.517296,137.11056 245.136049,136.97088 C250.754309,136.83024 256.09264,138.83424 260.166617,142.61088 C260.494267,142.9152 260.50755,143.42112 260.196135,143.74128 Z M190.801764,155.71392 C190.709766,155.73744 190.617768,155.74464 190.52823,155.73744 C190.190741,155.71008 189.892609,155.4792 189.80258,155.14176 C187.397846,146.12784 177.995869,140.67168 168.752306,142.8648 C168.715408,142.87728 168.675559,142.88448 168.636202,142.8912 C168.583069,142.90464 168.529445,142.91424 168.476312,142.92768 C168.038954,143.03904 167.591264,142.78272 167.477128,142.35552 C167.414648,142.1208 167.468765,141.88608 167.599628,141.70128 C166.507461,134.64288 161.722101,128.53488 155.002819,125.6808 C144.2071,121.09536 131.598484,125.93328 126.897742,136.46784 C126.717682,136.87248 126.235063,137.05824 125.819843,136.8816 C125.404623,136.70544 125.215216,136.23456 125.395767,135.82944 C130.456629,124.48752 144.03196,119.27664 155.657135,124.21488 C162.788193,127.24368 167.896284,133.67616 169.167034,141.13728 C179.011781,139.22976 188.827993,145.14048 191.388188,154.73952 C191.502325,155.16672 191.239614,155.60304 190.801764,155.71392 Z M284.642947,122.55936 C285.885163,107.7768 274.614205,94.80816 259.462121,93.58992 C257.416523,93.42528 254.255145,94.26768 252.460942,93.05472 C250.962411,92.04192 250.554079,89.87424 249.450105,88.53024 C248.102116,86.89104 246.527331,85.42992 244.781833,84.19872 C241.261319,81.71664 237.06927,80.21472 232.741438,79.86672 C229.205673,79.58256 225.788964,80.0664 222.657596,81.16944 C222.639885,81.17568 222.62365,81.18384 222.604955,81.18912 C222.604463,81.18912 222.595116,81.19152 222.592164,81.19248 C222.393409,81.26352 222.194655,81.33648 221.99836,81.41184 C221.990489,81.40368 221.982617,81.396 221.974746,81.38784 C219.459812,82.24272 210.175907,86.04432 208.634083,95.86608 C213.898127,96.10992 219.01163,98.49552 222.489343,102.79152 C226.652858,99.39744 232.352293,98.20512 237.586819,99.69024 C241.789199,100.88208 245.26396,103.59984 247.371546,107.34192 C249.479131,111.084 249.967162,115.40304 248.745117,119.5032 C248.634916,119.87424 248.272337,120.10752 247.892047,120.0768 C247.83793,120.07248 247.783814,120.06288 247.730189,120.048 C247.295291,119.92416 247.045372,119.48064 247.171807,119.0568 C249.441742,111.43968 244.936802,103.44 237.12929,101.22528 C232.152554,99.8136 226.71091,101.08608 222.92375,104.544 C222.59364,104.84592 222.074615,104.82912 221.76566,104.50704 C221.725811,104.46576 221.692357,104.42112 221.663331,104.37504 C216.146416,96.90864 205.434823,95.19984 197.767521,100.57056 C197.400022,100.82832 196.888377,100.74624 196.624191,100.3872 C196.360496,100.02864 196.444131,99.52944 196.812122,99.27168 C199.897737,97.11024 203.434486,95.99952 206.973203,95.85936 C208.419586,85.80384 217.210048,81.47904 220.726626,80.13648 C215.447823,75.1128 208.418602,71.77968 200.494985,71.14272 C188.773877,70.2 177.988982,75.38352 171.436476,83.94768 C169.515346,83.37696 167.50517,82.99008 165.422183,82.82256 C155.178943,81.99888 145.056235,86.75088 139.311047,95.06496 C137.862205,97.16208 136.832027,99.39312 135.943535,101.75664 C135.823987,102.07536 135.688696,102.35808 135.53963,102.6144 C141.609516,100.9344 149.960652,99.98688 158.78014,103.10976 C159.205199,103.26 159.425108,103.71888 159.27063,104.1336 C159.116153,104.5488 158.647801,104.76336 158.220773,104.61264 C139.835484,98.1024 123.231606,109.91856 123.066305,110.03856 C122.940361,110.12976 122.796215,110.18016 122.650593,110.19264 C120.504634,111.58464 118.500361,113.17152 116.74896,115.09728 C111.548379,120.81456 108.36191,128.11344 107.718418,135.73056 C106.066393,155.28672 120.975938,172.44672 141.019648,174.05808 C143.279251,174.23952 145.781886,173.17488 147.918498,174.0744 C146.995568,170.80608 146.658079,166.76928 148.333225,162.67968 C148.501478,162.26976 148.978194,162.0696 149.397842,162.23424 C149.818473,162.39792 150.022639,162.86304 149.854879,163.27296 C146.394876,171.72048 152.625635,180.31776 152.689099,180.40368 C152.765846,180.50832 152.810123,180.62496 152.829802,180.74352 C153.914096,182.30304 155.126302,183.5544 156.781279,184.73568 C161.28671,187.95216 166.694901,189.92928 172.259537,190.37664 C176.97307,190.75536 181.521303,190.06032 185.657268,188.50608 C185.707448,188.4672 185.761565,188.4312 185.822568,188.40432 C198.545813,182.6928 201.438085,169.66704 201.466127,169.536 C201.557141,169.10352 201.988104,168.82464 202.433334,168.91392 C202.876104,169.0032 203.161937,169.42512 203.070923,169.85712 C202.96515,170.3616 200.616501,181.01472 190.583331,187.62192 C195.712576,194.41104 203.701132,199.08864 212.993401,199.83552 C217.516543,200.19936 222.319122,199.28112 226.73354,197.98176 C231.389514,196.61136 234.130752,203.412 235.616492,206.36256 C237.804268,210.70752 238.761635,215.916 242.081427,219.65952 C246.86728,225.0552 252.864847,221.05248 253.976199,214.99344 C254.61182,211.5288 254.800736,208.008 254.665937,204.49344 C254.600505,202.76448 254.396831,200.7648 255.326648,199.20048 C256.438493,197.33088 258.230728,197.77824 260.165141,197.48928 C263.88195,196.93248 267.454613,195.5568 270.564335,193.49616 C276.887583,189.30672 281.005837,182.43168 281.634079,174.9984 C281.87711,172.12032 281.599641,169.31952 280.889241,166.67616 C279.604224,167.1 276.9968,167.77488 273.496948,167.73456 C272.948898,167.7288 272.364441,167.70336 271.748991,167.65392 C267.255366,167.29248 261.06544,165.62016 254.533598,160.29552 C254.186761,160.01232 254.140024,159.50832 254.430285,159.16944 C254.721037,158.83056 255.237602,158.78592 255.584931,159.06912 C269.050061,170.04624 280.983207,164.94432 281.101771,164.89056 C281.179993,164.856 281.261168,164.83824 281.342342,164.82912 C289.746119,161.75136 296.022139,154.17072 296.808793,144.86352 C297.60332,135.45456 292.564596,126.89472 284.642947,122.55936 L284.642947,122.55936 Z" id="Fill-25" fill="#EAC5B0"></path>
                                <polyline id="Fill-26" fill="#3B455A" points="339.09924 305.67936 338.782905 305.89152 335.688434 309.84624 339.513968 312.9312 346.068441 308.54256 345.593201 303.96192 339.229119 306.10128 339.09924 305.67936"></polyline>
                                <path d="M320.933367,245.01936 L321.512904,248.47728 L339.09924,305.67936 L345.337378,301.5024 L345.593201,303.96192 L345.947417,303.8424 L336.840129,244.9464 C331.538203,245.03232 326.235785,245.05344 320.933367,245.01936" id="Fill-27" fill="#3B455A"></path>
                                <polyline id="Fill-28" fill="#3B455A" points="339.09924 305.67936 339.229119 306.10128 345.593201 303.96192 345.337378 301.5024 339.09924 305.67936"></polyline>
                                <path d="M298.784532,243.73296 L307.886409,307.4328 L314.384798,307.4328 L314.384798,308.2152 L314.421695,308.2152 L315.575357,244.96368 C314.764596,244.95168 313.952851,244.94544 313.14209,244.93056 C308.475293,244.84896 303.57186,244.56 298.784532,243.73296" id="Fill-29" fill="#3B455A"></path>
                                <polyline id="Fill-30" fill="#3B455A" points="307.886409 307.4328 307.438719 307.4328 303.965434 310.98576 307.438719 314.53824 314.384798 310.98576 314.384798 308.2152 307.998577 308.2152 307.886409 307.4328"></polyline>
                                <polyline id="Fill-31" fill="#3B455A" points="307.886409 307.4328 307.998577 308.2152 314.384798 308.2152 314.384798 307.4328 307.886409 307.4328"></polyline>
                                <path d="M318.78544,202.60656 L318.804627,196.22592 L320.569804,196.3032 C320.280035,195.50784 320.065538,194.688 319.934183,193.86672 C319.392527,190.47504 319.963701,187.04496 320.74888,183.67488 L315.405629,189.08208 L293.345839,173.0856 C291.100011,182.91984 289.855827,192.95328 288.619515,202.96176 C287.419608,212.68272 288.131976,226.4136 281.973044,234.71664 C281.635063,235.17216 281.249853,235.66464 281.285766,236.22624 C281.328075,236.88144 281.922371,237.35712 282.479278,237.72576 C287.317279,240.92784 292.964565,242.7288 298.784532,243.73296 L293.866832,209.31408 L318.78544,202.60656" id="Fill-32" fill="#D7E8F4"></path>
                                <path d="M324.407637,145.54464 L328.40585,153.09552 C330.403727,145.70592 330.694972,137.99472 330.810584,130.42416 C329.385356,130.33344 327.833693,130.20912 326.228898,130.09968 C326.145263,130.2792 326.049822,130.42944 325.938145,130.53696 C325.020135,131.41872 321.922712,130.80768 320.71149,130.60656 C320.375969,130.55088 320.023721,130.47792 319.768882,130.25712 C319.673932,130.17408 319.599645,130.04304 319.539134,129.88032 C315.735739,129.96192 312.228999,130.53648 310.043191,132.3024 C309.897077,132.42 309.757358,132.54336 309.623052,132.672 C305.588432,136.55088 303.026269,144.80304 300.878834,149.8416 C298.909491,154.46112 297.201875,159.18624 295.754509,163.98576 L310.786061,172.51104 L324.407637,145.54464" id="Fill-33" fill="#D7E8F4"></path>
                                <path d="M366.653806,231.86592 C360.352696,226.59168 356.227063,221.124 353.656044,214.43184 C352.450234,214.06992 351.170136,213.35424 349.834939,213.06048 C348.413155,212.74704 346.854604,212.92992 345.288182,213.17856 L336.82045,244.81968 L336.840129,244.9464 C336.878994,244.94544 336.917859,244.94544 336.956725,244.94496 C347.410034,244.77264 358.494045,244.17168 367.116255,238.40208 C367.989496,237.81792 368.884875,237.1032 369.124463,236.09712 C369.520988,234.42864 367.986544,232.98096 366.653806,231.86592" id="Fill-34" fill="#D7E8F4"></path>
                                <path d="M315.577817,244.81968 L315.575357,244.96368 C317.361197,244.98864 319.147528,245.00784 320.933367,245.01936 L318.826274,232.45584 L315.577817,244.81968" id="Fill-35" fill="#D7E8F4"></path>
                                <path d="M320.569804,196.3032 L318.804627,196.22592 L318.78544,202.60656 L323.857126,201.24144 C322.378274,199.944 321.258557,198.19248 320.569804,196.3032" id="Fill-36" fill="#D7E8F4"></path>
                                <path d="M345.288182,213.17856 C342.7639,213.5784 340.216988,214.14768 338.182706,213.08304 C335.605784,211.73424 335.325855,208.33872 334.281409,205.67328 C333.237456,203.0088 329.228419,200.81856 327.698894,203.25024 C327.317128,203.1624 326.947169,203.04768 326.589509,202.90992 L318.826274,232.45584 L320.933367,245.01936 C326.235785,245.05344 331.538203,245.03232 336.840129,244.9464 L336.82045,244.81968 L345.288182,213.17856" id="Fill-37" fill="#D7E8F4"></path>
                                <path d="M318.826274,232.45584 L318.701806,231.71376 L318.78544,202.60656 L293.866832,209.31408 L298.784532,243.73296 C303.57186,244.56 308.475293,244.84896 313.14209,244.93056 C313.952851,244.94544 314.764596,244.95168 315.575357,244.96368 L315.577817,244.81968 L318.826274,232.45584" id="Fill-38" fill="#D7E8F4"></path>
                                <path d="M318.78544,202.60656 L318.701806,231.71376 L318.826274,232.45584 L326.589509,202.90992 C325.579501,202.52304 324.664935,201.94992 323.857126,201.24144 L318.78544,202.60656" id="Fill-39" fill="#D7E8F4"></path>
                                <path d="M326.228898,130.09968 C326.565895,129.37344 326.686427,128.14368 326.738083,127.07136 C324.612787,127.93296 322.226256,128.14656 319.686232,127.42848 C319.532246,127.3848 319.382688,127.332 319.232146,127.28112 C319.292166,128.24064 319.317257,129.28704 319.539134,129.88032 C321.735765,129.83376 324.030298,129.9504 326.228898,130.09968" id="Fill-40" fill="#DD957C"></path>
                                <path d="M320.71149,130.60656 C321.922712,130.80768 325.020135,131.41872 325.938145,130.53696 C326.049822,130.42944 326.145263,130.2792 326.228898,130.09968 C324.030298,129.9504 321.735765,129.83376 319.539134,129.88032 C319.599645,130.04304 319.673932,130.17408 319.768882,130.25712 C320.023721,130.47792 320.375969,130.55088 320.71149,130.60656" id="Fill-41" fill="#DD957C"></path>
                                <path d="M314.743442,100.55136 C314.723763,100.48368 314.702608,100.41648 314.684406,100.34784 C314.31543,98.89104 314.62537,97.35072 315.332326,96.0024 C315.06322,95.84976 314.790178,95.70288 314.510249,95.56992 C311.357726,97.30992 309.158635,100.59936 308.797531,104.11584 C308.537773,106.63776 309.23243,109.22592 310.65323,111.34416 C310.719153,110.05392 310.866252,108.76464 311.06599,107.4936 C311.559925,104.34768 312.910373,102.06336 314.743442,100.55136" id="Fill-42" fill="#3B455A"></path>
                                <path d="M325.957332,124.02816 L325.04375,125.10768 C326.052281,125.07696 326.803023,125.18016 326.794659,125.37744 C326.777932,125.75664 326.771537,126.3816 326.738083,127.07136 C328.181022,126.48672 329.503428,125.60352 330.669881,124.5072 C330.161188,121.05312 328.640027,117.74112 326.653465,114.81408 C324.160669,111.14208 320.959934,107.98992 317.805935,104.83968 C317.758214,104.7912 317.709509,104.74272 317.661296,104.69424 C314.838883,106.82592 312.909389,110.11392 312.656027,113.59872 C311.882655,112.94352 311.21358,112.17936 310.65323,111.34416 C310.517939,114.0144 310.737848,116.68848 311.605678,119.21184 C312.841006,122.80656 315.574865,126.05568 319.232146,127.28112 C319.187869,126.57408 319.124406,125.91504 318.946806,125.52576 C321.283648,125.02656 323.62049,124.52736 325.957332,124.02816" id="Fill-43" fill="#DD957C"></path>
                                <path d="M326.738083,127.07136 C326.771537,126.3816 326.777932,125.75664 326.794728,125.37744 C326.803023,125.18016 326.052281,125.07696 325.04375,125.10768 L325.957332,124.02816 C323.62049,124.52736 321.283648,125.02656 318.946806,125.52576 C319.124406,125.91504 319.187869,126.57408 319.232146,127.28112 C319.382688,127.332 319.532246,127.3848 319.686232,127.42848 C322.226256,128.14656 324.612787,127.93296 326.738083,127.07136" id="Fill-44" fill="#DD957C"></path>
                                <path d="M312.656027,113.59872 C312.909389,110.11392 314.838883,106.82592 317.661296,104.69424 C316.44663,103.476 315.223601,102.16896 314.743442,100.55136 C312.910373,102.06336 311.559925,104.34768 311.06599,107.4936 C310.866252,108.76464 310.719153,110.05392 310.65323,111.34416 C311.21358,112.17936 311.882655,112.94352 312.656027,113.59872" id="Fill-45" fill="#DD957C"></path>
                                <polyline id="Fill-46" fill="#DD957C" points="286.658043 161.79216 285.374994 158.43936 284.509132 158.34336 284.345307 159.3792 282.463535 156.89328 279.968771 156.28944 277.368235 158.4576 276.660787 161.83584 279.140791 164.12688 283.09276 165.0456 285.120647 166.0152 286.996024 161.93712 286.658043 161.79216"></polyline>
                                <path d="M295.754509,163.98576 L288.06064,159.6216 L286.996024,161.93712 L290.46931,163.41936 L288.210198,167.49312 L285.120647,166.0152 L284.739373,166.84464 L293.345839,173.0856 C293.562305,172.14 293.78369,171.19584 294.019342,170.25408 C294.545254,168.1512 295.128235,166.06224 295.754509,163.98576" id="Fill-47" fill="#D7E8F4"></path>
                                <path d="M320.74888,183.67488 C320.939271,182.856 321.141961,182.04096 321.345635,181.23024 C323.647056,172.04736 325.687734,162.75456 328.261704,153.6408 C328.312869,153.45936 328.357146,153.27696 328.40585,153.09552 L324.407637,145.54464 L310.786061,172.51104 L295.754509,163.98576 C295.128235,166.06224 294.545254,168.1512 294.019342,170.25408 C293.78369,171.19584 293.562305,172.14 293.345839,173.0856 L315.405629,189.08208 L320.74888,183.67488" id="Fill-48" fill="#D7E8F4"></path>
                                <polyline id="Fill-49" fill="#D7E8F4" points="290.46931 163.41936 286.996024 161.93712 285.120647 166.0152 288.210198 167.49312 290.46931 163.41936"></polyline>
                                <path d="M318.583734,98.61888 C324.334334,97.12848 331.704488,100.19328 334.818637,106.4544 C337.593822,112.03392 335.4272,120.03408 330.669881,124.5072 C330.798777,125.3856 330.865684,126.27312 330.854369,127.1664 C330.840102,128.2488 330.826819,129.33504 330.810584,130.42416 C331.955883,130.49664 333.021483,130.54752 333.961139,130.54752 C335.31208,144.42768 337.919996,158.2896 341.111384,171.86544 C343.869842,183.59712 349.126998,195.0336 351.467284,206.74944 C352.016319,209.4984 352.738034,212.0424 353.656044,214.43184 C355.199836,214.89504 356.621128,214.77936 357.878595,212.45856 C356.156711,210.93936 356.204924,208.40208 357.997159,206.86416 C359.702316,205.40016 362.085895,204.98736 364.066061,203.9016 C369.135286,201.12336 370.585112,194.34336 369.016722,188.88096 C367.44784,183.41856 363.600168,178.90992 360.065387,174.40656 C351.390045,163.3536 347.926599,147.55392 348.311809,133.76976 C348.568124,124.6032 349.463504,115.18032 346.52597,106.46976 C343.052193,96.16656 334.611519,90.14256 323.695761,90.77184 C320.586039,90.95088 318.182781,92.21904 316.207043,94.66944 C315.874473,95.08224 315.579785,95.53056 315.332326,96.0024 C316.551419,96.69504 317.652441,97.58352 318.583734,98.61888" id="Fill-50" fill="#3B455A"></path>
                                <path d="M341.111384,171.86544 C337.919996,158.2896 335.31208,144.42768 333.961139,130.54752 C333.021483,130.54752 331.955883,130.49664 330.810584,130.42416 C330.694972,137.99472 330.403727,145.70592 328.40585,153.09552 L336.277319,167.96112 L320.74888,183.67488 C319.963701,187.04496 319.392527,190.47504 319.934183,193.86672 C320.065538,194.688 320.280035,195.50784 320.569804,196.3032 L345.539577,197.39904 L346.649946,208.0896 L345.288182,213.17856 C346.854604,212.92992 348.413155,212.74704 349.834939,213.06048 C351.170136,213.35424 352.450234,214.06992 353.656044,214.43184 C352.738034,212.0424 352.016319,209.4984 351.467284,206.74944 C349.126998,195.0336 343.869842,183.59712 341.111384,171.86544" id="Fill-51" fill="#3B455A"></path>
                                <path d="M345.539577,197.39904 L320.569804,196.3032 C321.258557,198.19248 322.378274,199.944 323.857126,201.24144 L327.268915,200.3232 L326.589509,202.90992 C326.947169,203.04768 327.317128,203.1624 327.698894,203.25024 C329.228419,200.81856 333.237456,203.0088 334.281409,205.67328 C335.325855,208.33872 335.605784,211.73424 338.182706,213.08304 C340.216988,214.14768 342.7639,213.5784 345.288182,213.17856 L346.649946,208.0896 L345.539577,197.39904" id="Fill-52" fill="#3B455A"></path>
                                <path d="M323.857126,201.24144 C324.664935,201.94992 325.579501,202.52304 326.589509,202.90992 L327.268915,200.3232 L323.857126,201.24144" id="Fill-53" fill="#3B455A"></path>
                                <path d="M314.684406,100.34784 C314.702608,100.41648 314.723763,100.48368 314.743442,100.55136 C315.870045,99.62208 317.177693,98.9832 318.583734,98.61888 C317.652441,97.58352 316.551419,96.69504 315.332326,96.0024 C314.62537,97.35072 314.31543,98.89104 314.684406,100.34784" id="Fill-54" fill="#3B455A"></path>
                                <path d="M334.818637,106.4544 C331.704488,100.19328 324.334334,97.12848 318.583734,98.61888 C319.692135,99.85008 320.562916,101.28528 321.111459,102.83472 L321.469611,102.7392 C320.088168,103.1592 318.802167,103.83264 317.661296,104.69424 C317.709509,104.74272 317.758214,104.7912 317.805935,104.83968 C320.959934,107.98992 324.160669,111.14208 326.653465,114.81408 C328.640027,117.74112 330.161188,121.05312 330.669881,124.5072 C335.4272,120.03408 337.593822,112.03392 334.818637,106.4544" id="Fill-55" fill="#3B455A"></path>
                                <path d="M321.111459,102.83472 C320.562916,101.28528 319.692135,99.85008 318.583734,98.61888 C317.177693,98.9832 315.870045,99.62208 314.743442,100.55136 C315.223601,102.16896 316.44663,103.476 317.661296,104.69424 C318.802167,103.83264 320.088168,103.1592 321.469611,102.7392 L321.111459,102.83472" id="Fill-56" fill="#3B455A"></path>
                                <path d="M328.40585,153.09552 C328.357146,153.27696 328.312869,153.45936 328.261704,153.6408 C325.687734,162.75456 323.647056,172.04736 321.345635,181.23024 C321.141961,182.04096 320.939271,182.856 320.74888,183.67488 L336.277319,167.96112 L328.40585,153.09552" id="Fill-57" fill="#3B455A"></path>
                                <path d="M86.7094693,67.32864 C92.7198271,48.11472 81.6279446,27.78576 61.9354992,21.9216 C42.2425618,16.05792 21.3010127,26.98224 15.3585463,46.21632 C12.4082216,55.76736 13.6779878,65.58432 18.1229075,73.75728 C21.5834017,80.1192 23.3466105,87.22848 23.1094825,94.42704 L22.7395235,105.65808 L46.1128643,112.61808 L51.9097086,103.60272 C55.9172698,97.36992 61.6058814,92.36304 68.2917097,88.9608 C76.8445518,84.60864 83.6715745,77.04096 86.7094693,67.32864" id="Fill-58" fill="#7DB5DB"></path>
                                <path d="M36.2326958,122.95872 L24.8367778,119.56512 C21.608,118.60368 19.5737175,115.45488 20.3126515,112.44864 L22.9146637,100.7688 L48.7748964,108.2928 L44.058903,119.51952 C42.9519778,122.41632 39.4614737,123.91968 36.2326958,122.95872" id="Fill-59" fill="#BCBEC0"></path>
                                <path d="M44.9001662,112.57008 C37.5964277,110.724 30.473733,108.20928 23.1675346,106.37328 C22.5186305,106.21056 22.2815025,107.13648 22.9033485,107.34384 C30.044738,109.72608 37.4153839,111.444 44.5607091,113.81616 C45.362615,114.08256 45.7306061,112.77984 44.9001662,112.57008" id="Fill-60" fill="#878D91"></path>
                                <path d="M43.9447668,115.62576 C36.6410283,113.77968 29.5178416,111.26496 22.2116432,109.42896 C21.563231,109.26624 21.3256111,110.19216 21.9474571,110.39952 C29.0893385,112.78176 36.4594925,114.49968 43.6053097,116.87184 C44.4067235,117.13824 44.7752066,115.83552 43.9447668,115.62576" id="Fill-61" fill="#878D91"></path>
                                <path d="M70.3761729,5.0976 C69.6746283,7.3392 65.9322371,15.03504 64.4253429,14.58624 C62.9179568,14.13744 64.217241,5.71392 64.9187856,3.47232 C65.6198382,1.23024 67.4101053,-0.2232 68.9169994,0.2256 C70.4238936,0.6744 71.0777175,2.85552 70.3761729,5.0976" id="Fill-62" fill="#7DB5DB"></path>
                                <path d="M100.506185,27.60048 C98.3061097,28.54272 90.9113573,33.07056 91.5450105,34.4784 C92.1781717,35.88624 100.599659,33.64032 102.799734,32.69856 C104.999317,31.75632 106.269084,29.8512 105.635922,28.44384 C105.002761,27.036 102.705768,26.65824 100.506185,27.60048" id="Fill-63" fill="#7DB5DB"></path>
                                <path d="M102.507998,67.51296 C100.140162,67.11696 91.8441263,64.46352 92.1102803,62.94864 C92.3764343,61.43328 101.104909,61.6296 103.472745,62.0256 C105.840581,62.42208 107.54377,63.97152 107.277616,65.48688 C107.011461,67.00224 104.875834,67.90944 102.507998,67.51296" id="Fill-64" fill="#7DB5DB"></path>
                                <path d="M31.0025972,3.97824 C32.3791202,5.8992 36.2818925,13.5192 34.9904798,14.4 C33.699067,15.28128 27.7029762,9.08976 26.3264532,7.1688 C24.9494382,5.24784 24.8805629,2.97648 26.1719756,2.0952 C27.4628964,1.2144 29.6260742,2.05728 31.0025972,3.97824" id="Fill-65" fill="#7DB5DB"></path>
                                <path d="M3.44950693,31.7184 C5.64072687,32.67936 14.0415512,34.99824 14.6875036,33.59616 C15.3339479,32.19408 7.98101274,27.60144 5.7897928,26.64048 C3.59857285,25.67952 1.29862825,26.03664 0.652183934,27.43872 C0.00623157895,28.8408 1.25877895,30.75696 3.44950693,31.7184" id="Fill-66" fill="#7DB5DB"></path>
                                <path d="M59.8495601,68.5632 C60.1875413,67.71744 60.6878715,66.93552 61.2388742,66.20784 C61.4878094,65.87808 61.7682305,65.58144 62.085549,65.31408 C62.1106393,65.29296 62.2149363,65.22096 62.3172654,65.16096 C62.3093939,65.22096 62.3093939,65.30784 62.2793839,65.42544 C61.7333008,67.57008 60.8418571,69.79488 59.5386371,71.60688 C59.377272,71.83152 59.2011479,72.04368 59.0142006,72.24528 C59.0998028,70.97952 59.3846515,69.72528 59.8495601,68.5632 Z M53.1593042,60.84 C52.9738327,61.69632 52.4548078,62.66592 52.2491657,63.15744 C51.873303,64.0536 51.4216776,64.91952 50.9213474,65.75712 C51.2539169,63.9144 51.9731723,62.13696 53.1593042,60.84 Z M60.901877,79.00656 C60.0119091,77.84784 59.4564787,76.51152 59.1839291,75.11424 C60.9643568,73.9416 62.189354,72.0168 63.0350449,70.14 C63.5521019,68.99328 63.9668299,67.81152 64.3608953,66.62016 C64.7406936,65.47104 64.8917274,64.44432 64.1149119,63.42768 C63.4217307,62.52048 62.0481596,62.74368 61.168031,63.16128 C60.1526116,63.6432 59.4023623,64.704 58.7908476,65.59104 C57.5560111,67.3824 56.9046471,69.50352 56.6621075,71.6328 C56.5774892,72.37536 56.5637141,73.12464 56.6143867,73.87008 C55.9871291,74.10576 55.3175623,74.24064 54.6229053,74.25024 C52.4843258,74.27808 51.3483745,72.74256 50.9533252,70.85376 C50.8883856,70.5432 50.8362371,70.2192 50.7954039,69.88608 C51.0738571,69.53136 51.3454227,69.17424 51.6056731,68.81904 C52.8710116,67.09056 53.8677363,65.18304 54.6657064,63.2112 C55.3274017,61.5768 56.0023801,59.58912 54.6607867,58.10448 C54.2293319,57.62736 53.5573053,57.69072 53.0820654,58.04352 C49.6466615,60.59184 48.4265839,64.9656 48.5781097,69.06336 C47.848031,69.92304 47.0535047,70.72992 46.2142094,71.49072 C45.2907878,72.32736 43.644667,73.55232 42.3055335,72.93552 C41.0583978,72.36192 40.5152665,70.45296 40.1753175,69.2712 C39.9263823,68.40528 39.7955191,67.52016 39.752718,66.6288 C40.0518338,66.25248 40.3406183,65.868 40.6180875,65.4744 C41.7102537,63.9288 42.579559,62.23728 43.2840554,60.49344 C43.8729396,59.03712 44.577436,56.95584 43.1281019,55.74288 C42.7064864,55.39008 41.9813274,55.19808 41.5479047,55.68144 C39.0821673,58.43328 37.7066283,61.848 37.5752731,65.50272 C37.5708454,65.62656 37.5723213,65.75088 37.5713374,65.8752 C35.7687712,68.09232 33.4963767,69.96624 31.0030892,71.39184 C29.8838648,72.03216 30.8033507,73.7424 31.9516011,73.13088 C34.1428211,71.96496 36.1220033,70.48896 37.8492986,68.76144 C37.9865573,69.44784 38.1710449,70.12416 38.4007934,70.7808 C39.0314947,72.58176 39.9681994,74.37168 41.9016288,75.06048 C43.7071468,75.70416 45.6696022,74.64192 47.0736753,73.62912 C47.7476698,73.14288 48.3788632,72.58272 48.973159,71.98032 C49.4351158,73.64592 50.3855956,75.14064 52.0764853,75.90816 C53.6325762,76.61424 55.3613474,76.59024 56.965651,76.11696 C57.3410216,77.64528 57.9845141,79.11168 58.859231,80.4216 C59.8579235,81.91728 61.9979789,80.4336 60.901877,79.00656 L60.901877,79.00656 Z" id="Fill-67" fill="#FFFFFF"></path>
                                <path d="M64.5306238,74.4936 C57.2072066,84.65472 49.7027457,94.70016 41.9365584,104.544 C41.0067413,105.72288 42.8535845,107.16432 43.7804499,105.98592 C51.5367978,96.12048 59.0205961,86.064 66.1373873,75.74976 C66.8709097,74.6856 65.2976,73.42944 64.5306238,74.4936" id="Fill-68" fill="#FFFFFF"></path>
                                <path d="M30.2700587,63.51168 C29.6959335,75.92112 28.904359,88.32816 27.7821828,100.7016 C27.6478759,102.18336 29.999477,102.43008 30.1313241,100.95024 C31.2338216,88.56336 32.0007978,76.15776 32.3166404,63.72768 C32.3491102,62.4456 30.3300787,62.21184 30.2700587,63.51168" id="Fill-69" fill="#FFFFFF"></path>
                                <path d="M127.078786,106.86816 L128.82576,102.33312 C128.82576,102.33312 131.366768,99.8088 132.637518,99.8088 L136.449276,101.10672 L136.449276,107.67216 L131.764277,109.66176 L127.078786,106.86816" id="Fill-70" fill="#DD957C"></path>
                                <polyline id="Fill-71" fill="#7DB5DB" points="288.546704 19.89552 262.690899 52.37472 277.126679 58.1856 264.324228 89.9232 293.489002 56.81712 278.084047 48.22992 288.546704 19.89552"></polyline>
                                <polyline id="Fill-72" fill="#7DB5DB" points="309.764738 55.43808 283.743632 81.6168 294.8793 88.0224 275.481542 115.75824 303.964942 87.33696 296.701545 78.54624 309.764738 55.43808"></polyline>
                            </g>
                            <text id="rapid-fire-ideation" fill="#FFFFFF" font-family="SegoeUI-Light, Segoe UI" font-size="60" font-weight="300">
                                <tspan x="14" y="65">rapid-fire</tspan>
                                <tspan x="14" y="145">ideation </tspan>
                            </text>
                        </g>
                    </g>
                </g>
            </g>
        </g>
    </g>
</svg>